HIERARCHY
ROOT Hips
{
	OFFSET 0.000000 0.000000 0.000000 
	CHANNELS 6 Xposition Yposition Zposition Yrotation Zrotation Xrotation 
	JOINT Lumbar
	{
		OFFSET 0.000000 0.000000 0.000000 
		CHANNELS 3 Zrotation Xrotation Yrotation
		JOINT Neck
		{
			OFFSET 0.000000 0.445665 0.000000 
			CHANNELS 3 Zrotation Xrotation Yrotation
			End Site
			{
				OFFSET 0.000000 0.227535 0.000000 
			}
		}
		JOINT RightShoulder
		{
			OFFSET 0.019635 0.377685 0.194865 
			CHANNELS 3 Zrotation Xrotation Yrotation
			JOINT RightElbow
			{
				OFFSET 0.000000 -0.243375 0.000000 
				CHANNELS 2 Zrotation Yrotation
				JOINT RightWrist
				{
					OFFSET 0.000000 -0.264825 0.000000 
					CHANNELS 2 Zrotation Xrotation
					End Site
					{
						OFFSET 0.006600 -0.176220 0.000990 
					}
				}
			}
		}
		JOINT LeftShoulder
		{
			OFFSET 0.019635 0.377685 -0.194865 
			CHANNELS 3 Zrotation Xrotation Yrotation
			JOINT LeftElbow
			{
				OFFSET 0.000000 -0.243375 0.000000 
				CHANNELS 2 Zrotation Yrotation
				JOINT LeftWrist
				{
					OFFSET 0.000000 -0.264825 0.000000 
					CHANNELS 2 Zrotation Xrotation
					End Site
					{
						OFFSET 0.006600 -0.176220 -0.000990 
					}
				}
			}
		}
	}
	JOINT RightHip
	{
		OFFSET 0.052140 -0.069960 0.075570 
		CHANNELS 3 Zrotation Xrotation Yrotation
		JOINT RightKnee
		{
			OFFSET 0.000000 -0.402270 0.000000 
			CHANNELS 1 Zrotation
			JOINT RightAnkle
			{
				OFFSET 0.000000 -0.404085 0.000000 
				CHANNELS 3 Zrotation Xrotation Yrotation
				End Site
				{
					OFFSET 0.204105 -0.089430 0.008415 
				}
			}
		}
	}
	JOINT LeftHip
	{
		OFFSET 0.052140 -0.069960 -0.075570 
		CHANNELS 3 Zrotation Xrotation Yrotation
		JOINT LeftKnee
		{
			OFFSET 0.000000 -0.402270 0.000000 
			CHANNELS 1 Zrotation
			JOINT LeftAnkle
			{
				OFFSET 0.000000 -0.404085 0.000000 
				CHANNELS 3 Zrotation Xrotation Yrotation
				End Site
				{
					OFFSET 0.204105 -0.089430 -0.008415 
				}
			}
		}
	}
}
MOTION
Frames: 34
Frame Time: 0.02
-0.12984 0.93228 -0.18521 103.75665 0 -4.99935 -19.30306 -4.6476 1.09146 -17.91614 0.29937 1.44773 54.47166 -14.84383 54.8394 85.01191 17.5213 37.61184 -17.88065 55.30592 8.74858 -36.85402 46.74332 -106.03481 -19.40404 8.00769 3.90164 6.70084 -0.79142 -25.41987 12.0791 -3.25352 -2.22395 22.15482 12.91076 8.41233 -21.5361 -5.19187 0.71576 -4.58679
-0.12735 0.93271 -0.1832 103.59703 0 -4.97475 -18.77702 -4.41594 1.45767 -17.97699 0.27821 1.7591 55.7177 -15.13548 54.20713 83.41767 19.32799 35.95381 -17.12268 52.90027 8.33514 -39.31724 47.75958 -107.30304 -17.60557 9.01462 4.00053 6.72345 -0.8277 -25.2949 11.98552 -3.01134 -1.91188 22.33832 13.09239 7.21597 -22.00253 -4.56727 0.65104 -4.63669
-0.12557 0.93302 -0.18138 103.42264 0 -4.9597 -18.44135 -4.19657 2.07232 -17.81854 0.12097 2.09805 56.59247 -15.51022 53.21987 81.31982 22.12792 34.27588 -15.78299 49.67562 8.29646 -42.23352 51.35173 -107.51879 -15.20793 10.00549 4.09784 6.70647 -0.87115 -25.21167 11.92479 -2.75714 -1.54869 22.50755 13.20486 5.78643 -22.58839 -3.65804 0.64696 -4.30609
-0.12351 0.93338 -0.17949 103.2645 0 -4.93951 -18.0331 -3.97726 2.56923 -17.75635 0.02447 2.4195 57.58555 -15.82854 52.41948 79.42912 24.37988 32.65499 -14.75429 46.88441 8.1316 -44.88047 53.84916 -108.0298 -13.03638 10.93234 4.19287 6.70657 -0.91177 -25.10908 11.84874 -2.51288 -1.21636 22.67821 13.34602 4.50418 -23.11266 -2.91054 0.62139 -4.13449
-0.1213 0.93376 -0.1775 103.06597 0 -4.92172 -17.57301 -3.73709 3.09005 -17.69958 -0.06397 2.76548 58.80522 -16.22762 51.51207 77.59598 27.01845 30.80998 -13.54335 43.80292 7.77791 -47.83855 56.04365 -109.30116 -11.00743 12.15873 4.30115 6.7095 -0.94878 -25.00891 11.77385 -2.25032 -0.85241 22.87298 13.49913 3.04549 -23.67392 -2.02669 0.5698 -4.02483
-0.11956 0.93408 -0.17578 102.94985 0 -4.90212 -17.26477 -3.54188 3.61642 -17.58295 -0.20234 3.06395 59.45758 -16.47495 50.74332 75.54372 29.09551 29.4427 -12.56694 41.15281 7.90413 -50.2372 59.45206 -108.7835 -8.59303 12.76527 4.37977 6.69782 -0.99636 -24.91183 11.70429 -2.02344 -0.54278 23.01214 13.61046 1.8985 -24.18211 -1.35768 0.58564 -3.69989
-0.11885 0.93428 -0.17464 103.04293 0 -4.86846 -17.31293 -3.47176 4.12603 -17.35351 -0.45093 3.24418 58.65895 -16.3152 50.43991 72.92416 29.38358 29.30558 -12.39627 39.78096 9.30312 -51.00808 65.84773 -103.08231 -4.83662 11.57308 4.39479 6.65172 -1.06274 -24.83156 11.64445 -1.89001 -0.38572 23.01237 13.62694 1.6842 -24.53943 -1.36897 0.78943 -2.80659
-0.1186 0.93444 -0.17378 103.22281 0 -4.83393 -17.50933 -3.44568 4.62737 -17.07283 -0.74438 3.37183 57.29727 -15.99509 50.28911 70.12413 29.0755 29.66699 -12.47689 38.89453 11.16375 -51.18917 73.32177 -95.70085 -0.78847 9.77305 4.37682 6.59295 -1.14095 -24.74978 11.58845 -1.79424 -0.28675 22.95462 13.603 1.7894 -24.83392 -1.60298 1.05633 -1.72027
-0.1182 0.93463 -0.17284 103.3777 0 -4.80434 -17.64718 -3.39609 5.11334 -16.8177 -1.0144 3.51027 56.17386 -15.7259 50.07093 67.46258 29.03913 29.86653 -12.43019 37.86473 12.79068 -51.61639 80.13671 -89.41863 2.83872 8.31082 4.36236 6.54274 -1.21999 -24.65651 11.52871 -1.68624 -0.16744 22.91608 13.5953 1.73893 -25.14045 -1.7241 1.28353 -0.76582
-0.11758 0.93478 -0.17171 103.47305 0 -4.75606 -17.75401 -3.36043 5.688 -16.54539 -1.30276 3.70459 55.10664 -15.54761 49.83131 64.53213 29.02952 29.80156 -12.41876 36.48475 14.53959 -52.15325 87.77942 -81.70355 7.68121 6.59081 4.39632 6.47992 -1.27442 -24.61552 11.47823 -1.55709 -0.02068 22.9079 13.59452 1.72415 -25.5214 -1.88556 1.55864 0.3853
-0.11754 0.93499 -0.17105 103.71075 0 -4.74617 -17.95886 -3.30769 6.07367 -16.29934 -1.5608 3.77019 53.80028 -15.14669 49.67813 62.14122 28.81499 30.39426 -12.40113 35.95409 16.12902 -52.31483 93.88995 -76.5621 10.08309 5.26036 4.32159 6.44012 -1.38112 -24.46543 11.40933 -1.48127 0.0543 22.82203 13.5702 1.71435 -25.73027 -2.01833 1.74904 1.17125
-0.11888 0.93533 -0.17155 104.34092 0 -4.84417 -18.39128 -3.18342 5.93015 -16.1415 -1.73201 3.48904 51.91686 -14.12041 49.71987 61.15092 28.13317 32.78003 -12.30687 37.70395 17.25272 -51.58968 95.76329 -79.15425 5.42624 5.18018 3.95515 6.4733 -1.64378 -24.00849 11.28507 -1.54185 -0.05335 22.54363 13.49455 1.63865 -25.48471 -2.02957 1.68269 0.87045
-0.12082 0.93572 -0.17252 105.10717 0 -4.98042 -18.91775 -3.0433 5.59725 -16.0121 -1.86882 3.08127 49.82638 -12.88507 49.84603 60.73495 27.27084 35.78878 -12.20037 40.28326 18.18317 -50.50573 96.00257 -84.35426 -1.64772 5.50733 3.48046 6.52886 -1.95583 -23.44284 11.14264 -1.65499 -0.23147 22.18803 13.3961 1.55873 -25.06746 -2.00334 1.53014 0.20001
-0.12257 0.93609 -0.17332 105.79819 0 -5.09807 -19.40431 -2.91879 5.3559 -15.86915 -2.0158 2.73346 47.86548 -11.77702 49.93992 60.14923 26.51563 38.45177 -12.10086 42.45492 19.14095 -49.57779 96.80029 -88.23052 -7.46307 5.63225 3.05507 6.57051 -2.23578 -22.93049 11.01067 -1.74544 -0.37882 21.86227 13.30616 1.48252 -24.72351 -1.98776 1.42142 -0.28342
-0.12399 0.93649 -0.17398 106.5504 0 -5.22103 -19.88318 -2.75876 5.09113 -15.72819 -2.18832 2.37167 45.72596 -10.52484 50.01435 59.18155 25.62923 41.41028 -12.00303 44.78339 20.36463 -48.65151 98.38959 -92.65356 -13.96826 5.81196 2.62789 6.62843 -2.55713 -22.40114 10.86951 -1.83292 -0.52399 21.55514 13.2232 1.40842 -24.39359 -2.0069 1.29469 -0.8426
-0.12624 0.93682 -0.17503 107.20428 0 -5.34178 -20.39975 -2.67035 4.83044 -15.58894 -2.29782 2.01207 43.92789 -9.52817 50.14593 59.13579 24.98726 43.87755 -11.89647 46.96249 20.98987 -47.654 97.95937 -96.55281 -19.584 5.97749 2.17939 6.65678 -2.80355 -21.88204 10.74318 -1.93763 -0.68826 21.1935 13.12004 1.32642 -23.99925 -1.94171 1.18492 -1.33134
-0.1305 0.93693 -0.17702 107.57037 0 -5.44947 -20.98562 -2.76655 4.62667 -15.46128 -2.25033 1.66926 43.02893 -9.26326 50.42754 61.59983 25.03096 44.96864 -11.75985 48.64124 19.94261 -46.46028 92.07392 -98.61411 -22.40782 6.04986 1.69631 6.60818 -2.83295 -21.41127 10.66154 -2.08512 -0.90026 20.68431 12.9741 1.20866 -23.42798 -1.65419 1.13619 -1.56317
-0.13559 0.93697 -0.1794 107.82912 0 -5.55336 -21.60779 -2.93836 4.43476 -15.33186 -2.13872 1.33744 42.49973 -9.26728 50.76069 64.94988 25.34961 45.50869 -11.61457 50.11757 18.30929 -45.22298 84.26159 -100.02918 -24.20186 6.09 1.19573 6.52739 -2.78464 -20.95507 10.59546 -2.2465 -1.1266 20.12615 12.80772 1.08443 -22.8056 -1.28174 1.10837 -1.70764
-0.14036 0.93705 -0.18162 108.12549 0 -5.65721 -22.2201 -3.0865 4.2365 -15.19468 -2.05063 1.0137 41.86799 -9.16642 51.06099 67.83106 25.54996 46.22146 -11.47893 51.6083 16.98685 -44.07023 77.50468 -101.57652 -26.30768 6.11606 0.70522 6.45451 -2.77078 -20.49745 10.52284 -2.39601 -1.3379 19.60123 12.64568 0.97122 -22.23409 -0.94615 1.07526 -1.87408
-0.14491 0.93713 -0.18377 108.47406 0 -5.76911 -22.8071 -3.1889 4.03126 -15.0954 -1.98526 0.62883 40.95839 -8.98858 51.40383 71.02579 25.65979 47.31666 -11.32214 53.45435 15.47263 -42.64556 69.92094 -103.86097 -29.17783 6.27083 0.20343 6.41006 -2.76301 -20.01709 10.44775 -2.57065 -1.58716 19.02741 12.50257 0.82341 -21.54059 -0.61669 1.02177 -2.12606
-0.15011 0.93717 -0.18615 108.68628 0 -5.86375 -23.45504 -3.40483 3.85139 -14.91538 -1.85756 0.37739 40.71023 -9.03318 51.66955 73.75273 26.09583 47.43572 -11.20343 54.50325 14.21777 -41.76368 63.63764 -104.46587 -30.15405 6.15264 -0.27944 6.29935 -2.72259 -19.58522 10.3812 -2.69579 -1.76049 18.54457 12.31691 0.74681 -21.09038 -0.25482 1.01637 -2.17693
-0.15696 0.93709 -0.18903 108.55115 0 -5.90365 -24.25441 -3.91427 3.69176 -14.52151 -1.57602 0.47625 42.26863 -9.66587 51.70498 75.11916 26.72511 45.35798 -11.22308 53.38113 13.84937 -42.54687 61.28953 -100.19344 -26.38956 5.22067 -0.68942 6.00611 -2.61824 -19.31762 10.33878 -2.67947 -1.71659 18.32798 12.0067 0.86204 -21.33308 0.17617 1.14268 -1.67033
-0.16445 0.93696 -0.19211 108.28193 0 -5.92758 -25.11487 -4.53528 3.56666 -14.0448 -1.23409 0.71219 44.46814 -10.50655 51.6608 75.95352 27.76322 42.26102 -11.27328 51.46462 13.75654 -43.84968 60.34293 -94.30185 -20.7181 4.02702 -1.08231 5.64882 -2.48222 -19.0934 10.30345 -2.61347 -1.59756 18.20463 11.65676 1.05001 -21.82146 0.63638 1.31628 -0.96716
-0.17164 0.93687 -0.1951 108.07064 0 -5.96389 -25.95205 -5.10678 3.45788 -13.60006 -0.9177 0.8966 46.3286 -11.22741 51.65653 76.93177 29.0737 39.36951 -11.29207 49.91838 13.52285 -44.81566 58.85334 -89.41513 -15.72677 2.99424 -1.49316 5.32534 -2.3556 -18.82654 10.26243 -2.57003 -1.51351 18.0368 11.33303 1.20929 -22.19284 1.08303 1.46614 -0.36718
-0.17889 0.93672 -0.19813 107.86565 0 -5.97856 -26.77151 -5.67758 3.2155 -13.17879 -0.60522 1.03726 48.40202 -12.06537 51.64105 78.3555 28.58451 37.48466 -11.39401 48.32048 13.34102 -46.20888 56.92186 -83.4229 -11.4067 1.77862 -1.8615 4.97995 -2.24694 -18.6534 10.23339 -2.52459 -1.42085 17.87544 10.97412 1.35129 -22.58571 1.53472 1.62648 0.29526
-0.18614 0.93668 -0.2011 107.6205 0 -6.03445 -27.64207 -6.27321 3.25787 -12.68956 -0.27345 1.29968 50.18079 -12.70405 51.62598 78.71234 31.78031 33.34674 -11.31826 46.65167 13.11618 -46.8313 56.2401 -79.29267 -5.35127 0.8882 -2.31427 4.66659 -2.09491 -18.29959 10.17957 -2.4746 -1.33511 17.72422 10.67939 1.54492 -22.99186 1.98066 1.77555 0.87175
-0.19334 0.93699 -0.20387 107.26776 0 -6.20868 -28.63669 -6.92824 4.09174 -12.02779 0.11645 1.88004 50.97494 -12.74992 51.66227 76.2555 46.42263 22.55508 -10.85022 44.91965 12.77949 -45.24557 58.91947 -81.27303 5.91593 0.90158 -3.00209 4.44696 -1.82714 -17.40008 10.06688 -2.39476 -1.22367 17.57196 10.5712 1.87763 -23.38406 2.41216 1.88573 1.17596
-0.20047 0.93743 -0.20655 106.88488 0 -6.42478 -29.68052 -7.60072 5.20806 -11.30142 0.51963 2.57505 51.45114 -12.5841 51.69755 72.73815 64.51913 9.65564 -10.18561 43.15891 12.38055 -42.86117 62.76603 -85.09511 18.69898 1.25851 -3.77549 4.26361 -1.51839 -16.32505 9.92688 -2.31653 -1.13147 17.42836 10.5292 2.25683 -23.77994 2.83472 1.98221 1.38449
-0.20755 0.93781 -0.20925 106.53617 0 -6.62136 -30.70343 -8.25283 6.18646 -10.6081 0.90359 3.20784 52.08041 -12.50971 51.71051 69.70062 80.11198 -1.82215 -9.53783 41.44925 11.96246 -40.80703 65.92818 -87.68103 30.19461 1.50121 -4.5115 4.0709 -1.2306 -15.35271 9.79181 -2.25805 -1.07435 17.28484 10.45719 2.60585 -24.16782 3.25543 2.08231 1.62717
-0.21504 0.9382 -0.21209 106.09787 0 -6.81964 -31.72374 -8.96105 7.20774 -9.89652 1.34559 3.88919 52.69639 -12.46721 51.80929 66.65507 99.59156 -15.27124 -9.18484 39.53989 11.74786 -38.89436 69.80754 -91.82977 44.26107 1.57329 -5.24183 3.84684 -0.92974 -14.28065 9.68834 -2.11534 -0.83788 17.12661 10.38325 2.997 -24.58977 3.70259 2.19479 1.9142
-0.22163 0.93858 -0.21459 105.83877 0 -7.0243 -32.75866 -9.55549 8.20468 -9.20842 1.66877 4.49351 53.25577 -12.29986 51.73966 63.38 111.87887 -25.12982 -8.18628 38.06424 11.09871 -36.50903 72.42774 -93.26417 53.33704 2.06643 -6.00297 3.69631 -0.64935 -13.37964 9.51278 -2.14411 -0.97015 17.00109 10.32985 3.30875 -24.93992 4.09162 2.27797 2.08601
-0.22584 0.93893 -0.21623 106.09971 0 -7.23853 -33.83552 -9.82726 9.07871 -8.60296 1.66317 4.86764 53.7332 -11.88594 51.12191 59.74658 102.68845 -24.30782 -5.31914 37.66881 9.19915 -32.85196 71.50149 -86.04034 48.00653 3.80709 -6.84155 3.75089 -0.4131 -12.94528 9.14198 -2.68943 -2.20635 16.95316 10.31525 3.40444 -25.07706 4.32644 2.28019 1.94106
-0.22911 0.93927 -0.2175 106.53909 0 -7.45748 -34.92219 -9.98413 9.91546 -8.02281 1.53711 5.15765 54.15997 -11.3451 50.34943 55.92202 86.27756 -19.84126 -1.83372 37.73298 6.87555 -28.77358 69.22849 -76.1521 37.64622 5.93064 -7.70564 3.87648 -0.2027 -12.69761 8.7 -3.3997 -3.79713 16.93948 10.31977 3.41553 -25.14319 4.50213 2.25387 1.68661
-0.23274 0.9396 -0.2189 106.88611 0 -7.67279 -35.99555 -10.19578 10.76074 -7.43094 1.46369 5.4785 54.61151 -10.82937 49.70441 52.17247 73.68333 -17.2021 1.28056 37.67887 4.78759 -24.99275 67.41347 -67.97235 29.73747 7.76792 -8.54959 3.96274 0.00401 -12.39659 8.29255 -4.00585 -5.16582 16.91648 10.31661 3.45539 -25.24967 4.70203 2.24245 1.49566
